<?xml version="1.0" standalone="no"?>
<!DOCTYPE svg PUBLIC "-//W3C//DTD SVG 20010904//EN"
 "http://www.w3.org/TR/2001/REC-SVG-20010904/DTD/svg10.dtd">
<svg version="1.0" xmlns="http://www.w3.org/2000/svg"
 width="204.000000pt" height="204.000000pt" viewBox="0 0 204.000000 204.000000"
 preserveAspectRatio="xMidYMid meet">
<metadata>
Created by potrace 1.11, written by Peter Selinger 2001-2013
</metadata>
<g transform="translate(0.000000,204.000000) scale(0.100000,-0.100000)"
fill="#000000" stroke="none">
<path d="M45 1755 l-25 -24 0 -451 0 -451 25 -24 c24 -25 26 -25 217 -26 106
-1 196 -1 200 0 9 1 53 -46 54 -58 1 -6 2 -97 3 -201 1 -189 1 -191 26 -215
l24 -25 451 0 451 0 24 25 c25 24 25 26 25 214 0 202 5 231 47 250 15 7 96 11
214 11 188 0 190 0 214 25 l25 24 0 451 0 451 -25 24 -24 25 -261 0 -261 0
-24 -25 c-16 -15 -25 -35 -25 -56 0 -28 19 -52 145 -179 120 -122 145 -152
145 -176 -1 -31 -22 -68 -33 -57 -4 3 -7 -1 -7 -10 0 -20 -11 -22 -30 -4 -12
10 -12 9 -1 -5 11 -15 8 -22 -25 -55 -21 -21 -29 -27 -18 -13 l19 25 -22 -19
c-13 -11 -23 -24 -23 -31 0 -16 -35 -47 -43 -38 -4 3 -7 -1 -7 -10 0 -9 -7
-17 -15 -17 -8 0 -14 -4 -12 -8 1 -5 -17 -27 -40 -49 -24 -23 -43 -38 -43 -35
-1 4 -6 -3 -14 -16 -7 -13 -26 -32 -42 -43 -16 -10 -24 -19 -19 -19 6 0 -3 -9
-19 -19 -17 -11 -33 -18 -37 -15 -4 2 -5 -5 -2 -16 5 -18 -5 -25 -30 -21 -5 1
-6 -3 -3 -7 6 -11 -49 -72 -65 -72 -5 0 -7 -6 -3 -12 4 -7 4 -10 -1 -6 -4 4
-18 -5 -29 -21 -21 -28 -96 -96 -84 -76 4 6 -3 17 -15 25 -20 12 -21 12 -8 -4
8 -9 10 -20 6 -24 -4 -4 -10 -1 -12 6 -3 6 -9 10 -14 7 -5 -4 -20 5 -33 18
-13 14 -39 35 -56 47 -17 12 -29 25 -26 28 7 6 -45 52 -59 52 -5 0 -3 5 5 10
12 8 11 10 -7 10 -16 0 -25 8 -29 25 -3 14 -10 25 -16 25 -5 0 -6 -4 -3 -10
11 -17 0 -11 -18 11 -18 20 -18 21 5 14 18 -5 20 -4 8 4 -8 6 -23 11 -33 11
-9 0 -25 13 -36 30 -10 16 -20 28 -23 25 -2 -3 -11 6 -18 20 -7 14 -17 25 -22
25 -13 0 -48 39 -48 54 0 8 -5 18 -12 22 -8 5 -9 2 -5 -11 6 -13 2 -12 -17 6
-13 13 -22 29 -19 36 3 8 2 13 -3 12 -26 -4 -35 2 -29 21 4 12 2 20 -5 20 -6
0 -8 -4 -5 -10 3 -5 2 -10 -3 -10 -11 0 -42 33 -42 45 0 5 6 1 13 -10 11 -14
16 -15 22 -5 5 8 4 11 -2 7 -6 -4 -14 0 -17 9 -3 8 -10 13 -16 9 -5 -3 -30 15
-55 40 -73 76 -71 82 100 255 126 127 145 151 145 179 0 21 -9 41 -25 56 l-24
25 -261 0 -261 0 -24 -25z"/>
<path d="M1113 1325 l-186 -186 -90 91 c-99 100 -125 113 -165 82 -21 -15 -27
-28 -26 -56 1 -33 14 -49 127 -161 134 -133 151 -143 199 -106 69 55 417 414
423 438 9 37 -22 77 -64 81 -29 3 -46 -11 -218 -183z"/>
<path d="M420 1260 c8 -5 20 -10 25 -10 6 0 3 5 -5 10 -8 5 -19 10 -25 10 -5
0 -3 -5 5 -10z"/>
<path d="M1595 1249 c-4 -6 -5 -12 -2 -15 2 -3 7 2 10 11 7 17 1 20 -8 4z"/>
<path d="M1510 1158 c0 -4 4 -8 9 -8 6 0 12 4 15 8 3 5 -1 9 -9 9 -8 0 -15 -4
-15 -9z"/>
<path d="M1450 1100 c0 -5 5 -10 11 -10 5 0 7 5 4 10 -3 6 -8 10 -11 10 -2 0
-4 -4 -4 -10z"/>
<path d="M733 955 c0 -8 4 -12 9 -9 5 3 6 10 3 15 -9 13 -12 11 -12 -6z"/>
<path d="M815 879 c-4 -6 -5 -12 -2 -15 2 -3 7 2 10 11 7 17 1 20 -8 4z"/>
<path d="M1200 849 c0 -5 -4 -8 -9 -4 -5 3 -12 1 -15 -4 -4 -5 2 -8 11 -7 15
3 33 26 19 26 -3 0 -6 -5 -6 -11z"/>
<path d="M896 807 c3 -10 9 -15 12 -12 3 3 0 11 -7 18 -10 9 -11 8 -5 -6z"/>
<path d="M895 770 c3 -5 8 -10 11 -10 2 0 4 5 4 10 0 6 -5 10 -11 10 -5 0 -7
-4 -4 -10z"/>
<path d="M920 766 c0 -2 8 -10 18 -17 15 -13 16 -12 3 4 -13 16 -21 21 -21 13z"/>
</g>
</svg>
